<?xml version="1.0" encoding="UTF-8"?>
<svg version="1.1" xmlns="http://www.w3.org/2000/svg" width="134" height="89">
<path d="M0 0 C1.16527538 4.77680352 0.52310023 6.85551211 -1.6484375 11.3125 C-1.9363063 11.9145224 -2.22417511 12.5165448 -2.52076721 13.1368103 C-3.13921931 14.42694893 -3.76375386 15.71418625 -4.39376831 16.99871826 C-6.04875278 20.3741598 -7.65949665 23.77070997 -9.27734375 27.1640625 C-9.60035965 27.83821198 -9.92337555 28.51236145 -10.25617981 29.2069397 C-12.9621071 34.8690694 -15.49813361 40.5928185 -17.9375 46.375 C-18.28868896 47.20427002 -18.63987793 48.03354004 -19.00170898 48.88793945 C-19.67556891 50.4825442 -20.34822412 52.07765872 -21.01953125 53.67333984 C-22.64031083 57.51946269 -24.28255995 61.3559682 -25.9375 65.1875 C-26.22036865 65.85378418 -26.5032373 66.52006836 -26.79467773 67.20654297 C-27.96724821 69.91457955 -28.89244973 71.89244973 -31 74 C-33.69254127 74.31535358 -36.28951686 74.51046184 -38.99194336 74.61669922 C-39.79646155 74.65429792 -40.60097975 74.69189663 -41.42987728 74.73063469 C-49.99521143 75.09997865 -58.55707615 75.14542708 -67.12890625 75.1328125 C-68.782303 75.13348857 -70.43569965 75.1344611 -72.08909607 75.13571167 C-75.50821912 75.1371674 -78.92731563 75.13509901 -82.34643555 75.13037109 C-86.73568796 75.12459739 -91.12488024 75.12801356 -95.51413059 75.13394356 C-98.90688031 75.13754177 -102.29961551 75.13641536 -105.69236565 75.13381577 C-107.31316065 75.13314839 -108.93395697 75.13396832 -110.55475044 75.13629532 C-112.79898778 75.13881786 -115.0431238 75.13499055 -117.28735352 75.12939453 C-119.20113548 75.12820114 -119.20113548 75.12820114 -121.15357971 75.12698364 C-124 75 -124 75 -125 74 C-124.58845393 68.72291731 -123.10731093 64.4216667 -120.875 59.6875 C-120.15630195 58.11645671 -119.4389839 56.54478176 -118.72265625 54.97265625 C-118.30516113 54.0614502 -117.88766602 53.15024414 -117.45751953 52.21142578 C-114.69567415 46.12611353 -112.00826155 40.00767022 -109.31280518 33.89273071 C-108.33325636 31.67205548 -107.35119496 29.45250626 -106.36865234 27.2331543 C-105.74174454 25.81434225 -105.11495211 24.39547922 -104.48828125 22.9765625 C-104.03403778 21.95097984 -104.03403778 21.95097984 -103.57061768 20.90467834 C-101.29122489 15.73286067 -99.16619784 10.50858142 -97.12963867 5.23583984 C-96 3 -96 3 -93 1 C-90.27061462 0.7215271 -90.27061462 0.7215271 -86.92163086 0.68115234 C-85.66438705 0.66128265 -84.40714325 0.64141296 -83.11180115 0.62094116 C-81.72948408 0.60903132 -80.34716484 0.59737058 -78.96484375 0.5859375 C-77.52925054 0.56717956 -76.09366783 0.54760291 -74.65809631 0.5272522 C-70.85574918 0.47577575 -67.05336411 0.4363336 -63.25085449 0.39910889 C-60.22864928 0.36761263 -57.206583 0.32784755 -54.18448448 0.28753281 C-36.12261553 0.0467493 -18.0636184 -0.05866716 0 0 Z " fill="#029DD4" transform="translate(130,1)"/>
<path d="M0 0 C15.51 0 31.02 0 47 0 C46.20241462 5.58309765 45.19788006 9.41873461 42.8671875 14.33984375 C42.55226349 15.02446182 42.23733948 15.7090799 41.91287231 16.41444397 C40.90877916 18.59286509 39.89243241 20.7652818 38.875 22.9375 C37.55699114 25.77860613 36.24362362 28.62185231 34.9296875 31.46484375 C34.44041275 32.52007988 34.44041275 32.52007988 33.94125366 33.59663391 C28.77738267 44.76058407 23.94264621 56.06917863 19.1640625 67.40234375 C18 70 18 70 17 71 C15.52645652 71.09304018 14.04849409 71.11746265 12.57202148 71.11352539 C11.63112167 71.11344986 10.69022186 71.11337433 9.72080994 71.11329651 C8.69790359 71.10813522 7.67499725 71.10297394 6.62109375 71.09765625 C5.57929459 71.0962413 4.53749542 71.09482635 3.46412659 71.09336853 C0.12188906 71.0877508 -3.22028257 71.0751953 -6.5625 71.0625 C-8.82226466 71.05748728 -11.08203037 71.05292398 -13.34179688 71.04882812 C-18.89455391 71.03777561 -24.44727225 71.02102024 -30 71 C-30.19192708 66.81314622 -29.4297929 64.62561588 -27.21484375 61.03125 C-24.89621196 57.15443801 -22.99457644 53.05021135 -21 49 C-20.33423928 47.66621408 -19.66789187 46.33272003 -19 45 C-18.34 45 -17.68 45 -17 45 C-16.87625 44.13375 -16.7525 43.2675 -16.625 42.375 C-16.01941879 39.10486147 -15.11693965 36.12743101 -14 33 C-13.34 33 -12.68 33 -12 33 C-11.93683594 32.44054688 -11.87367187 31.88109375 -11.80859375 31.3046875 C-10.7225823 24.19417041 -7.93220145 18.46248628 -4.55859375 12.19921875 C-3.17719084 9.36370752 -2.42468785 7.10080308 -2 4 C-1.34 4 -0.68 4 0 4 C0 2.68 0 1.36 0 0 Z " fill="#2D5E35" transform="translate(83,3)"/>
<path d="M0 0 C0.495 2.475 0.495 2.475 1 5 C0.505 3.515 0.505 3.515 0 2 C-15.51 2 -31.02 2 -47 2 C-47 3.32 -47 4.64 -47 6 C-47.66 6 -48.32 6 -49 6 C-49.14115234 7.50046875 -49.14115234 7.50046875 -49.28515625 9.03125 C-49.89229436 13.27374758 -51.5162485 16.70445223 -53.4375 20.5 C-55.82759364 25.28018728 -57.66984079 29.81304749 -59 35 C-59.66 35 -60.32 35 -61 35 C-61.185625 36.299375 -61.185625 36.299375 -61.375 37.625 C-61.98058121 40.89513853 -62.88306035 43.87256899 -64 47 C-64.66 47 -65.32 47 -66 47 C-66.11730469 47.56074219 -66.23460937 48.12148438 -66.35546875 48.69921875 C-67.07455383 51.26613457 -68.10417742 53.43700515 -69.3125 55.8125 C-69.97958984 57.12734375 -69.97958984 57.12734375 -70.66015625 58.46875 C-71.80143973 60.6248774 -72.99737812 62.72020851 -74.25 64.8125 C-76.29013526 68.15066809 -76.29013526 68.15066809 -77 73 C-61.82 73 -46.64 73 -31 73 C-31 73.33 -31 73.66 -31 74 C-43.05632667 74.78209287 -55.04863493 75.15059022 -67.12890625 75.1328125 C-68.782303 75.13348857 -70.43569965 75.1344611 -72.08909607 75.13571167 C-75.50821912 75.1371674 -78.92731563 75.13509901 -82.34643555 75.13037109 C-86.73568796 75.12459739 -91.12488024 75.12801356 -95.51413059 75.13394356 C-98.90688031 75.13754177 -102.29961551 75.13641536 -105.69236565 75.13381577 C-107.31316065 75.13314839 -108.93395697 75.13396832 -110.55475044 75.13629532 C-112.79898778 75.13881786 -115.0431238 75.13499055 -117.28735352 75.12939453 C-119.20113548 75.12820114 -119.20113548 75.12820114 -121.15357971 75.12698364 C-124 75 -124 75 -125 74 C-124.58845393 68.72291731 -123.10731093 64.4216667 -120.875 59.6875 C-120.15630195 58.11645671 -119.4389839 56.54478176 -118.72265625 54.97265625 C-118.30516113 54.0614502 -117.88766602 53.15024414 -117.45751953 52.21142578 C-114.69567415 46.12611353 -112.00826155 40.00767022 -109.31280518 33.89273071 C-108.33325636 31.67205548 -107.35119496 29.45250626 -106.36865234 27.2331543 C-105.74174454 25.81434225 -105.11495211 24.39547922 -104.48828125 22.9765625 C-104.03403778 21.95097984 -104.03403778 21.95097984 -103.57061768 20.90467834 C-101.29122489 15.73286067 -99.16619784 10.50858142 -97.12963867 5.23583984 C-96 3 -96 3 -93 1 C-90.27061462 0.7215271 -90.27061462 0.7215271 -86.92163086 0.68115234 C-85.66438705 0.66128265 -84.40714325 0.64141296 -83.11180115 0.62094116 C-81.72948408 0.60903132 -80.34716484 0.59737058 -78.96484375 0.5859375 C-77.52925054 0.56717956 -76.09366783 0.54760291 -74.65809631 0.5272522 C-70.85574918 0.47577575 -67.05336411 0.4363336 -63.25085449 0.39910889 C-60.22864928 0.36761263 -57.206583 0.32784755 -54.18448448 0.28753281 C-36.12261553 0.0467493 -18.0636184 -0.05866716 0 0 Z M-94 4 C-94.20061035 4.67474365 -94.4012207 5.3494873 -94.60791016 6.04467773 C-95.00695557 7.38187866 -95.00695557 7.38187866 -95.4140625 8.74609375 C-95.67654785 9.6270874 -95.9390332 10.50808105 -96.20947266 11.41577148 C-97.85526712 16.79586239 -99.69073237 21.56044019 -102.625 26.375 C-105.38879697 31.13072272 -105.87522544 35.56663518 -106 41 C-107.485 41.495 -107.485 41.495 -109 42 C-110.22969878 45.51190809 -110.22969878 45.51190809 -111 49 C-111.66 49 -112.32 49 -113 49 C-113.83887056 51.43572059 -114.67126529 53.87333217 -115.5 56.3125 C-115.73847656 57.00279297 -115.97695312 57.69308594 -116.22265625 58.40429688 C-117.23208263 61.38931489 -118 63.82658914 -118 67 C-118.66 67 -119.32 67 -120 67 C-120.33 67.99 -120.66 68.98 -121 70 C-120.67 70.66 -120.34 71.32 -120 72 C-106.47 72 -92.94 72 -79 72 C-76.40048784 66.97329303 -76.40048784 66.97329303 -75 61.9375 C-74.3972381 59.24550405 -73.86495485 57.78185014 -72.375 55.375 C-70.66623974 52.42350501 -70.76599405 50.3540853 -71 47 C-69.02 46.505 -69.02 46.505 -67 46 C-66.67 43.36 -66.34 40.72 -66 38 C-65.01 37.67 -64.02 37.34 -63 37 C-62.814375 35.5459375 -62.814375 35.5459375 -62.625 34.0625 C-62.41875 33.051875 -62.2125 32.04125 -62 31 C-61.34 30.67 -60.68 30.34 -60 30 C-58.87316542 28.22539972 -58.87316542 28.22539972 -57.875 26.125 C-57.52179688 25.42632813 -57.16859375 24.72765625 -56.8046875 24.0078125 C-55.81399334 21.89639647 -55.81399334 21.89639647 -56 19 C-55.34 19 -54.68 19 -54 19 C-53.67 16.03 -53.34 13.06 -53 10 C-52.34 10 -51.68 10 -51 10 C-51 8.35 -51 6.7 -51 5 C-56.23899228 4.12733788 -61.25322853 3.86589823 -66.55859375 3.90234375 C-67.34774673 3.9037587 -68.13689972 3.90517365 -68.94996643 3.90663147 C-71.44585115 3.91218445 -73.94164285 3.92472792 -76.4375 3.9375 C-78.13997265 3.94252109 -79.84244673 3.94708293 -81.54492188 3.95117188 C-85.69664988 3.96213842 -89.84830922 3.97937009 -94 4 Z " fill="#A2D6DE" transform="translate(130,1)"/>
<path d="M0 0 C0.87931183 -0.00570007 1.75862366 -0.01140015 2.6645813 -0.01727295 C4.52914216 -0.02673804 6.39371986 -0.0332629 8.25830078 -0.03710938 C11.11390345 -0.04681076 13.96878534 -0.0778178 16.82421875 -0.109375 C18.63280821 -0.11590514 20.44140284 -0.12115557 22.25 -0.125 C23.53449539 -0.1435202 23.53449539 -0.1435202 24.84494019 -0.16241455 C25.64231598 -0.15941345 26.43969177 -0.15641235 27.26123047 -0.15332031 C28.31260696 -0.15878876 28.31260696 -0.15878876 29.38522339 -0.16436768 C31.84649851 0.31865371 32.73800068 1.24267843 34.2578125 3.203125 C34.5703125 5.765625 34.5703125 5.765625 34.2578125 8.203125 C32.2578125 10.203125 32.2578125 10.203125 30.140625 10.36328125 C29.23054688 10.33105469 28.32046875 10.29882812 27.3828125 10.265625 C20.74237329 10.13715217 14.17555636 10.488093 7.55322266 10.93579102 C1.97725531 11.26681227 -3.20434784 10.95449018 -8.7421875 10.203125 C-10.82425821 5.79403409 -10.82425821 5.79403409 -10.4296875 2.953125 C-8.71199703 -1.41917801 -4.0383338 0.01994752 0 0 Z " fill="#DADBDB" transform="translate(12.7421875,76.796875)"/>
<path d="M0 0 C0.495 2.475 0.495 2.475 1 5 C0.505 3.515 0.505 3.515 0 2 C-15.51 2 -31.02 2 -47 2 C-47 3.32 -47 4.64 -47 6 C-47.66 6 -48.32 6 -49 6 C-49.14115234 7.50046875 -49.14115234 7.50046875 -49.28515625 9.03125 C-49.89229436 13.27374758 -51.5162485 16.70445223 -53.4375 20.5 C-55.82759364 25.28018728 -57.66984079 29.81304749 -59 35 C-59.66 35 -60.32 35 -61 35 C-61.185625 36.299375 -61.185625 36.299375 -61.375 37.625 C-61.98058121 40.89513853 -62.88306035 43.87256899 -64 47 C-64.66 47 -65.32 47 -66 47 C-66.11859375 47.56460938 -66.2371875 48.12921875 -66.359375 48.7109375 C-67.0611698 51.21857014 -68.05869092 53.31024122 -69.25 55.625 C-69.69214844 56.49125 -70.13429688 57.3575 -70.58984375 58.25 C-71.28787109 59.61125 -71.28787109 59.61125 -72 61 C-72.93953638 62.87398043 -73.8771325 64.74893527 -74.8125 66.625 C-75.54166667 68.08333333 -76.27083333 69.54166667 -77 71 C-77.66 70.67 -78.32 70.34 -79 70 C-78.71125 69.505 -78.4225 69.01 -78.125 68.5 C-77.12907701 66.2868378 -76.59092637 64.41155505 -76.0625 62.0625 C-75.24842079 58.56712813 -73.86111061 56.0748784 -72 53 C-71.28598768 49.80604974 -71.28598768 49.80604974 -71 47 C-69.515 46.505 -69.515 46.505 -68 46 C-67.27113604 44.15537813 -67.27113604 44.15537813 -66.9375 42 C-66.52734375 39.8125 -66.52734375 39.8125 -66 38 C-65.01 37.505 -65.01 37.505 -64 37 C-63.26924352 34.6859378 -62.59861742 32.35171131 -62 30 C-61.34 30 -60.68 30 -60 30 C-59.896875 29.29875 -59.79375 28.5975 -59.6875 27.875 C-58.90640997 24.60862353 -57.57941257 21.9528148 -56 19 C-55.34 19 -54.68 19 -54 19 C-54.020625 17.88625 -54.04125 16.7725 -54.0625 15.625 C-54 12 -54 12 -53 10 C-52.34 10 -51.68 10 -51 10 C-51 8.35 -51 6.7 -51 5 C-65.19 4.67 -79.38 4.34 -94 4 C-94 5.65 -94 7.3 -94 9 C-94.66 9 -95.32 9 -96 9 C-95.74438677 6.6568787 -95.40729228 4.32156597 -95 2 C-92.27680229 0.63840114 -90.08404286 0.83747472 -87.03515625 0.79467773 C-85.77783691 0.77473251 -84.52051758 0.75478729 -83.22509766 0.73423767 C-81.83756695 0.7172057 -80.45003432 0.70032886 -79.0625 0.68359375 C-77.62548293 0.66297207 -76.18847122 0.64197445 -74.75146484 0.62062073 C-71.71829429 0.57655006 -68.68510331 0.53569287 -65.65185547 0.49731445 C-61.84659741 0.44911764 -58.04144818 0.39533166 -54.23629761 0.33934593 C-36.15651694 0.07447088 -18.08208502 -0.0685521 0 0 Z " fill="#8AD0DF" transform="translate(130,1)"/>
<path d="M0 0 C0.94746094 0.00644531 1.89492188 0.01289062 2.87109375 0.01953125 C5.5625 0.1875 5.5625 0.1875 7.71875 0.7265625 C10.45974152 1.41181038 12.81837835 0.7129701 15.5625 0.1875 C16.5525 0.1875 17.5425 0.1875 18.5625 0.1875 C19.635 0.12949219 20.7075 0.07148437 21.8125 0.01171875 C23.05 -0.03339844 24.2875 -0.07851562 25.5625 -0.125 C26.8 -0.18300781 28.0375 -0.24101563 29.3125 -0.30078125 C32.5625 0.1875 32.5625 0.1875 34.5 2.70703125 C34.850625 3.52558594 35.20125 4.34414062 35.5625 5.1875 C34.1875 6.6875 34.1875 6.6875 32.5625 8.1875 C31.9025 8.1875 31.2425 8.1875 30.5625 8.1875 C30.5625 8.8475 30.5625 9.5075 30.5625 10.1875 C29.59828125 10.17589844 28.6340625 10.16429688 27.640625 10.15234375 C26.37734375 10.14332031 25.1140625 10.13429688 23.8125 10.125 C21.93304688 10.10759766 21.93304688 10.10759766 20.015625 10.08984375 C16.7857923 10.05046257 16.7857923 10.05046257 14.62646484 10.69677734 C10.78352727 11.61046371 6.85401704 11.0883625 2.9375 10.875 C2.06609375 10.83955078 1.1946875 10.80410156 0.296875 10.76757812 C-0.53585938 10.72439453 -1.36859375 10.68121094 -2.2265625 10.63671875 C-2.98662598 10.59893311 -3.74668945 10.56114746 -4.52978516 10.5222168 C-6.4375 10.1875 -6.4375 10.1875 -8.4375 8.1875 C-8.75 5.1875 -8.75 5.1875 -8.4375 2.1875 C-5.07869635 -0.05170243 -3.92173396 -0.05853334 0 0 Z " fill="#D0D1D0" transform="translate(58.4375,76.8125)"/>
<path d="M0 0 C15.51 0 31.02 0 47 0 C45.875 7.875 45.875 7.875 43 11 C43.33 8.36 43.66 5.72 44 3 C44.66 3 45.32 3 46 3 C46 2.34 46 1.68 46 1 C31.81 1 17.62 1 3 1 C2.67 2.98 2.34 4.96 2 7 C1.01 8.485 1.01 8.485 0 10 C-0.66 10 -1.32 10 -2 10 C-2.33 12.97 -2.66 15.94 -3 19 C-3.66 19 -4.32 19 -5 19 C-5.09796875 19.6290625 -5.1959375 20.258125 -5.296875 20.90625 C-6.35137979 26.94238089 -8.02467136 31.64440845 -11 37 C-11.66 37 -12.32 37 -13 37 C-13.37125 38.258125 -13.7425 39.51625 -14.125 40.8125 C-15.73471907 45.68786924 -18.04554218 49.98002761 -20.59765625 54.421875 C-21.94564342 56.90006869 -22.97947501 59.37390768 -24 62 C-25.78816443 65.18759747 -27.75690905 68.11602592 -30 71 C-30.50093891 66.86725401 -29.3635945 64.51819071 -27.21484375 61.03125 C-24.89621196 57.15443801 -22.99457644 53.05021135 -21 49 C-20.33423928 47.66621408 -19.66789187 46.33272003 -19 45 C-18.34 45 -17.68 45 -17 45 C-16.87625 44.13375 -16.7525 43.2675 -16.625 42.375 C-16.01941879 39.10486147 -15.11693965 36.12743101 -14 33 C-13.34 33 -12.68 33 -12 33 C-11.93683594 32.44054688 -11.87367187 31.88109375 -11.80859375 31.3046875 C-10.7225823 24.19417041 -7.93220145 18.46248628 -4.55859375 12.19921875 C-3.17719084 9.36370752 -2.42468785 7.10080308 -2 4 C-1.34 4 -0.68 4 0 4 C0 2.68 0 1.36 0 0 Z " fill="#19685B" transform="translate(83,3)"/>
<path d="M0 0 C2 2 2 2 2.25 4.5 C2 7 2 7 0 9 C-2.6015625 9.1953125 -2.6015625 9.1953125 -5.625 9.125 C-7.12933594 9.09792969 -7.12933594 9.09792969 -8.6640625 9.0703125 C-9.43492188 9.04710938 -10.20578125 9.02390625 -11 9 C-11 8.01 -11 7.02 -11 6 C-11.66 6 -12.32 6 -13 6 C-13 6.66 -13 7.32 -13 8 C-13.99 8 -14.98 8 -16 8 C-16 5.69 -16 3.38 -16 1 C-14.33524314 0.65725594 -12.66804677 0.32635698 -11 0 C-10.01 -0.20625 -9.02 -0.4125 -8 -0.625 C-4.96485797 -1.00439275 -2.91231489 -0.889874 0 0 Z " fill="#DDDEDE" transform="translate(45,78)"/>
<path d="M0 0 C4.99877567 -0.02483911 9.99751489 -0.04292563 14.99633789 -0.05493164 C16.69458645 -0.05994027 18.39283074 -0.06674906 20.09106445 -0.07543945 C22.54118915 -0.08765773 24.9912565 -0.09326314 27.44140625 -0.09765625 C28.19273331 -0.10281754 28.94406036 -0.10797882 29.71815491 -0.11329651 C34.24941493 -0.11377171 38.52883681 0.25523564 43 1 C43 2.65 43 4.3 43 6 C42.34 6 41.68 6 41 6 C40.67 8.97 40.34 11.94 40 15 C39.34 15 38.68 15 38 15 C37.75045995 13.56589632 37.52607358 12.12739928 37.3125 10.6875 C37.18488281 9.88699219 37.05726562 9.08648437 36.92578125 8.26171875 C37 6 37 6 38.50463867 4.35864258 C38.99810791 3.91029053 39.49157715 3.46193848 40 3 C35.87431757 2.83090837 31.74839266 2.67052491 27.62207031 2.51782227 C26.22158959 2.46481281 24.82119312 2.40952193 23.42089844 2.35180664 C12.67516548 1.905389 12.67516548 1.905389 2 3 C1.01 5.64 0.02 8.28 -1 11 C-1.66 10.67 -2.32 10.34 -3 10 C-2.01 6.7 -1.02 3.4 0 0 Z " fill="#0A9BCA" transform="translate(36,5)"/>
<path d="M0 0 C2.4409144 8.50621684 -1.62494495 16.6574784 -5.6875 24 C-6.45282756 25.33650123 -7.22168529 26.67101994 -8 28 C-8.66 28 -9.32 28 -10 28 C-10.28875 28.969375 -10.5775 29.93875 -10.875 30.9375 C-12 34 -12 34 -14 35 C-11.57606156 27.26490635 -8.50605264 19.88362854 -5.3125 12.4375 C-4.80138672 11.23802734 -4.29027344 10.03855469 -3.76367188 8.80273438 C-2.51224198 5.86713715 -1.25761707 2.93295065 0 0 Z " fill="#4DAFCB" transform="translate(34,4)"/>
<path d="M0 0 C2.97 0.495 2.97 0.495 6 1 C6 1.66 6 2.32 6 3 C10.80567423 2.88188994 15.61113568 2.75765177 20.41650391 2.62768555 C22.05187653 2.58432462 23.68729477 2.54265039 25.32275391 2.50268555 C27.67103841 2.44501088 30.01909304 2.38130871 32.3671875 2.31640625 C33.10057343 2.29969376 33.83395935 2.28298126 34.58956909 2.26576233 C38.42202308 2.21362038 38.42202308 2.21362038 42 1 C41.67 2.32 41.34 3.64 41 5 C27.47 5 13.94 5 0 5 C-0.33 4.01 -0.66 3.02 -1 2 C-0.67 1.34 -0.34 0.68 0 0 Z " fill="#1097CA" transform="translate(10,68)"/>
<path d="M0 0 C15.84 0 31.68 0 48 0 C48 0.99 48 1.98 48 3 C47.34 3 46.68 3 46 3 C45.855625 4.11375 45.71125 5.2275 45.5625 6.375 C45 10 45 10 44 12 C43.01 12 42.02 12 41 12 C41.33 10.35 41.66 8.7 42 7 C42.66 7 43.32 7 44 7 C44 5.35 44 3.7 44 2 C29.81 1.67 15.62 1.34 1 1 C1 2.65 1 4.3 1 6 C0.34 6 -0.32 6 -1 6 C-0.67 4.02 -0.34 2.04 0 0 Z " fill="#2696B3" transform="translate(35,4)"/>
<path d="M0 0 C0.66 0 1.32 0 2 0 C1.28815082 2.13554755 0.57614393 4.27104045 -0.13671875 6.40625 C-0.70495923 8.11354267 -1.27014678 9.82185498 -1.83203125 11.53125 C-2.09371094 12.3253125 -2.35539062 13.119375 -2.625 13.9375 C-2.98464844 15.03384766 -2.98464844 15.03384766 -3.3515625 16.15234375 C-4 18 -4 18 -5 20 C-5.66 20 -6.32 20 -7 20 C-7.185625 21.299375 -7.185625 21.299375 -7.375 22.625 C-7.98058121 25.89513853 -8.88306035 28.87256899 -10 32 C-10.66 32 -11.32 32 -12 32 C-11.01 26.72 -10.02 21.44 -9 16 C-8.01 15.67 -7.02 15.34 -6 15 C-5.896875 14.29875 -5.79375 13.5975 -5.6875 12.875 C-4.90640997 9.60862353 -3.57941257 6.9528148 -2 4 C-1.34 4 -0.68 4 0 4 C0 2.68 0 1.36 0 0 Z " fill="#188DA3" transform="translate(76,16)"/>
<path d="M0 0 C0 3.92896395 -1.00299863 7.19893228 -2 11 C-1.34 11 -0.68 11 0 11 C0 12.98 0 14.96 0 17 C-0.66 16.34 -1.32 15.68 -2 15 C-2.33 15.99 -2.66 16.98 -3 18 C-2.34 18.33 -1.68 18.66 -1 19 C-3.64 19 -6.28 19 -9 19 C-7.92900929 14.63365327 -7.12606038 12.12606038 -4 9 C-3.04875256 7.00196949 -3.04875256 7.00196949 -2.375 4.875 C-1.08333333 1.08333333 -1.08333333 1.08333333 0 0 Z " fill="#255F43" transform="translate(63,55)"/>
<path d="M0 0 C15.51 0 31.02 0 47 0 C45.875 7.875 45.875 7.875 43 11 C43.33 8.36 43.66 5.72 44 3 C44.66 3 45.32 3 46 3 C46 2.34 46 1.68 46 1 C30.82 1 15.64 1 0 1 C0 0.67 0 0.34 0 0 Z " fill="#66816C" transform="translate(83,3)"/>
<path d="M0 0 C11.88 0 23.76 0 36 0 C36 0.33 36 0.66 36 1 C35.25427734 1.02505615 34.50855469 1.0501123 33.74023438 1.07592773 C30.32668404 1.19273218 26.9133531 1.31507245 23.5 1.4375 C21.74042969 1.49647461 21.74042969 1.49647461 19.9453125 1.55664062 C13.90429231 1.77723968 7.9819015 2.11900213 2 3 C1.01 5.64 0.02 8.28 -1 11 C-1.66 10.67 -2.32 10.34 -3 10 C-2.01 6.7 -1.02 3.4 0 0 Z " fill="#1395C0" transform="translate(36,5)"/>
<path d="M0 0 C1.32 0 2.64 0 4 0 C4.33 0.99 4.66 1.98 5 3 C4.67 3.33 4.34 3.66 4 4 C4.66 4.33 5.32 4.66 6 5 C5.67 6.32 5.34 7.64 5 9 C3.02 9 1.04 9 -1 9 C-1.625 5.625 -1.625 5.625 -2 2 C-1.34 1.34 -0.68 0.68 0 0 Z " fill="#706F6E" transform="translate(4,77)"/>
<path d="M0 0 C0.556875 0.185625 1.11375 0.37125 1.6875 0.5625 C4.399133 1.07551165 6.34371039 0.6640724 9 0 C9 2.31 9 4.62 9 7 C6.03 7 3.06 7 0 7 C0 4.69 0 2.38 0 0 Z " fill="#262627" transform="translate(19,79)"/>
<path d="M0 0 C2.33944736 0.28730055 4.6739143 0.61936779 7 1 C6.125 5.875 6.125 5.875 5 7 C2.5 7.125 2.5 7.125 0 7 C-1 6 -1 6 -1.125 3.5 C-1 1 -1 1 0 0 Z " fill="#7D7D7D" transform="translate(69,79)"/>
<path d="M0 0 C-0.185625 0.763125 -0.37125 1.52625 -0.5625 2.3125 C-1.22819173 5.08967375 -1.22819173 5.08967375 0 8 C-0.99 8 -1.98 8 -3 8 C-3 7.34 -3 6.68 -3 6 C-3.66 6 -4.32 6 -5 6 C-5 6.66 -5 7.32 -5 8 C-5.99 8 -6.98 8 -8 8 C-8 5.69 -8 3.38 -8 1 C-5.23735711 0.40267181 -2.83967231 0 0 0 Z " fill="#3A3A3A" transform="translate(37,78)"/>
<path d="M0 0 C2.31 0 4.62 0 7 0 C7.33 0.99 7.66 1.98 8 3 C6.625 4.5 6.625 4.5 5 6 C4.34 6 3.68 6 3 6 C3 6.66 3 7.32 3 8 C2.01 8 1.02 8 0 8 C0 5.36 0 2.72 0 0 Z " fill="#595959" transform="translate(86,79)"/>
<path d="M0 0 C0.6875 1.6875 0.6875 1.6875 1 4 C-0.3125 6.4375 -0.3125 6.4375 -2 9 C-2.495 10.2375 -2.495 10.2375 -3 11.5 C-4.70804503 15.77011257 -7.18716027 19.38349178 -10 23 C-10.50032331 18.87233267 -9.37036353 16.52397207 -7.21875 13.04296875 C-5.29125828 9.81194897 -3.69963009 6.4184369 -2.05078125 3.0390625 C-1 1 -1 1 0 0 Z " fill="#14767A" transform="translate(63,51)"/>
<path d="M0 0 C2.31 0 4.62 0 7 0 C6.814375 0.763125 6.62875 1.52625 6.4375 2.3125 C5.77180827 5.08967375 5.77180827 5.08967375 7 8 C4.69 8 2.38 8 0 8 C0 5.36 0 2.72 0 0 Z " fill="#414140" transform="translate(11,78)"/>
<path d="M0 0 C0.66 0 1.32 0 2 0 C2 1.65 2 3.3 2 5 C2.99 5 3.98 5 5 5 C5 3.35 5 1.7 5 0 C5.99 0 6.98 0 8 0 C8.125 5.75 8.125 5.75 7 8 C5.02 8 3.04 8 1 8 C-0.35439668 5.29120665 -0.06501451 2.99066732 0 0 Z " fill="#4D4D4D" transform="translate(77,79)"/>
<path d="M0 0 C1.98 0 3.96 0 6 0 C6.33 2.31 6.66 4.62 7 7 C6.01 7 5.02 7 4 7 C4 6.34 4 5.68 4 5 C3.34 5 2.68 5 2 5 C2 5.66 2 6.32 2 7 C1.34 7 0.68 7 0 7 C0 4.69 0 2.38 0 0 Z " fill="#282929" transform="translate(60,79)"/>
<path d="M0 0 C0 1.98 0 3.96 0 6 C-0.33 5.34 -0.66 4.68 -1 4 C-2.32 4 -3.64 4 -5 4 C-5 4.66 -5 5.32 -5 6 C-5.66 6 -6.32 6 -7 6 C-6.67 4.68 -6.34 3.36 -6 2 C-4.68 2.33 -3.36 2.66 -2 3 C-2 2.34 -2 1.68 -2 1 C-3.98 1.33 -5.96 1.66 -8 2 C-8.33 3.65 -8.66 5.3 -9 7 C-9.33 7 -9.66 7 -10 7 C-10.1875 4.125 -10.1875 4.125 -10 1 C-6.1496895 -1.56687367 -4.41430237 -0.83288724 0 0 Z " fill="#D1D3D1" transform="translate(60,78)"/>
<path d="M0 0 C1.23666047 3.57257469 0.89093449 6.35526801 0 10 C-0.99 10.495 -0.99 10.495 -2 11 C-3.05352843 13.30965848 -4.05719096 15.6429774 -5 18 C-6.79292501 12.62122498 -3.64855432 7.36917023 -1.3125 2.4375 C-0.879375 1.633125 -0.44625 0.82875 0 0 Z " fill="#1F96BB" transform="translate(24,32)"/>
<path d="M0 0 C1.31872319 3.95616957 0.39499917 6.01739418 -0.75 10 C-1.09546875 11.2375 -1.4409375 12.475 -1.796875 13.75 C-2.89112794 16.70590404 -3.56638822 18.09786665 -6 20 C-6 16.69759226 -5.21949481 15.04873703 -4 12 C-3.65038428 10.64994544 -3.31800881 9.29534714 -3 7.9375 C-2.31429457 5.0586256 -1.50319656 2.57690838 0 0 Z " fill="#5FB8CF" transform="translate(19,39)"/>
<path d="M0 0 C1.4540625 0.0309375 1.4540625 0.0309375 2.9375 0.0625 C2.9375 0.7225 2.9375 1.3825 2.9375 2.0625 C1.6175 2.0625 0.2975 2.0625 -1.0625 2.0625 C-1.3925 3.0525 -1.7225 4.0425 -2.0625 5.0625 C-1.4025 5.0625 -0.7425 5.0625 -0.0625 5.0625 C-0.0625 4.4025 -0.0625 3.7425 -0.0625 3.0625 C0.9275 3.0625 1.9175 3.0625 2.9375 3.0625 C2.6075 4.3825 2.2775 5.7025 1.9375 7.0625 C-1.0325 6.5675 -1.0325 6.5675 -4.0625 6.0625 C-4.105221 4.39638095 -4.10313832 2.72867115 -4.0625 1.0625 C-3.0625 0.0625 -3.0625 0.0625 0 0 Z " fill="#232523" transform="translate(55.0625,78.9375)"/>
<path d="M0 0 C1.31223496 3.93670488 0.24296256 6.12488144 -1 10 C-1.66 10 -2.32 10 -3 10 C-3.66 11.32 -4.32 12.64 -5 14 C-6 11 -6 11 -5 8 C-4.34 8 -3.68 8 -3 8 C-2.87625 7.05125 -2.7525 6.1025 -2.625 5.125 C-2 2 -2 2 0 0 Z " fill="#299BB9" transform="translate(13,58)"/>
<path d="M0 0 C0.99 0 1.98 0 3 0 C2.37183502 3.94949704 1.1354471 7.19892028 -0.5625 10.8125 C-1.01753906 11.78832031 -1.47257812 12.76414062 -1.94140625 13.76953125 C-2.29074219 14.50558594 -2.64007813 15.24164063 -3 16 C-3.33 16 -3.66 16 -4 16 C-3.88541307 14.56163249 -3.75790884 13.12429034 -3.625 11.6875 C-3.55539063 10.88699219 -3.48578125 10.08648437 -3.4140625 9.26171875 C-3 7 -3 7 -1 4 C-0.34 4 0.32 4 1 4 C0.67 2.68 0.34 1.36 0 0 Z " fill="#708F75" transform="translate(108,48)"/>
<path d="M0 0 C0.33 0 0.66 0 1 0 C1.602537 6.98942918 1.602537 6.98942918 -0.11328125 9.8671875 C-1.33745588 11.30861002 -2.66278229 12.66278229 -4 14 C-5 12 -5 12 -4.2578125 9.6875 C-3.88398438 8.800625 -3.51015625 7.91375 -3.125 7 C-2.75632812 6.113125 -2.38765625 5.22625 -2.0078125 4.3125 C-1.37431018 2.85888227 -0.70913041 1.41826082 0 0 Z " fill="#0C9AC9" transform="translate(29,24)"/>
<path d="M0 0 C1.65028752 5.56439331 -1.10437157 9.33757548 -3.625 14.3125 C-4.29402344 15.63701172 -4.29402344 15.63701172 -4.9765625 16.98828125 C-5.48316406 17.98408203 -5.48316406 17.98408203 -6 19 C-7 17 -7 17 -6.47094727 15.21240234 C-6.17244873 14.51066895 -5.8739502 13.80893555 -5.56640625 13.0859375 C-5.24736328 12.32539063 -4.92832031 11.56484375 -4.59960938 10.78125 C-4.25736328 9.9871875 -3.91511719 9.193125 -3.5625 8.375 C-3.22412109 7.57320312 -2.88574219 6.77140625 -2.53710938 5.9453125 C-1.69833222 3.96060036 -0.85004755 1.97991125 0 0 Z " fill="#97D9E8" transform="translate(34,4)"/>
<path d="M0 0 C0.99 0.33 1.98 0.66 3 1 C3 1.99 3 2.98 3 4 C3.99 4 4.98 4 6 4 C6.33 2.68 6.66 1.36 7 0 C8 1 8 1 8.0625 3.5625 C8.041875 4.366875 8.02125 5.17125 8 6 C5.125 6.125 5.125 6.125 2 6 C1.34 5.34 0.68 4.68 0 4 C0 2.68 0 1.36 0 0 Z " fill="#343434" transform="translate(38,80)"/>
<path d="M0 0 C1.10762276 3.32286828 1.19118265 5.68170547 0 9 C-2.5625 10.8125 -2.5625 10.8125 -5 12 C-4.34 9.36 -3.68 6.72 -3 4 C-2.34 4 -1.68 4 -1 4 C-0.67 2.68 -0.34 1.36 0 0 Z " fill="#0E98CA" transform="translate(20,46)"/>
<path d="M0 0 C2.33294775 -0.04241723 4.66702567 -0.04092937 7 0 C8 1 8 1 8.0625 3.5625 C8.041875 4.366875 8.02125 5.17125 8 6 C7.34 4.68 6.68 3.36 6 2 C5.67 2.99 5.34 3.98 5 5 C4.01 5 3.02 5 2 5 C1.34 4.34 0.68 3.68 0 3 C0 2.01 0 1.02 0 0 Z " fill="#919191" transform="translate(39,79)"/>
<path d="M0 0 C0.33 0.99 0.66 1.98 1 3 C1.66 3 2.32 3 3 3 C2.67 5.64 2.34 8.28 2 11 C1.67 10.01 1.34 9.02 1 8 C0.34 8 -0.32 8 -1 8 C-1.04241723 5.66705225 -1.04092937 3.33297433 -1 1 C-0.67 0.67 -0.34 0.34 0 0 Z " fill="#486F51" transform="translate(101,58)"/>
<path d="M0 0 C0.66 0 1.32 0 2 0 C2 1.32 2 2.64 2 4 C3.32 4 4.64 4 6 4 C6.33 3.01 6.66 2.02 7 1 C6.67 2.65 6.34 4.3 6 6 C4.33388095 6.042721 2.66617115 6.04063832 1 6 C0 5 0 5 -0.0625 2.4375 C-0.041875 1.633125 -0.02125 0.82875 0 0 Z " fill="#1E1E1E" transform="translate(68,80)"/>
<path d="M0 0 C0.33 0.66 0.66 1.32 1 2 C0.01 3.485 0.01 3.485 -1 5 C-4.125 5.1875 -4.125 5.1875 -7 5 C-5.42898506 1.85797013 -3.23027335 1.07675778 0 0 Z " fill="#59755D" transform="translate(101,69)"/>
<path d="M0 0 C1.32 0 2.64 0 4 0 C3.56179109 4.55737263 3.14958831 7.57653445 0 11 C0.33 8.36 0.66 5.72 1 3 C1.66 3 2.32 3 3 3 C3 2.34 3 1.68 3 1 C2.01 0.67 1.02 0.34 0 0 Z " fill="#829889" transform="translate(126,3)"/>
<path d="M0 0 C0.99 0 1.98 0 3 0 C2.01 2.97 1.02 5.94 0 9 C-0.98150241 6.05549278 -1.1613058 4.06481021 -1 1 C-0.67 0.67 -0.34 0.34 0 0 Z " fill="#6F8971" transform="translate(123,14)"/>
<path d="M0 0 C1.32 0.33 2.64 0.66 4 1 C4 1.66 4 2.32 4 3 C3.34 3 2.68 3 2 3 C2 4.32 2 5.64 2 7 C1.34 7 0.68 7 0 7 C0 4.69 0 2.38 0 0 Z " fill="#202020" transform="translate(19,79)"/>
<path d="M0 0 C0.99 0 1.98 0 3 0 C3 0.66 3 1.32 3 2 C5.64 2 8.28 2 11 2 C11 2.33 11 2.66 11 3 C6.71 3 2.42 3 -2 3 C-1.34 2.01 -0.68 1.02 0 0 Z " fill="#3792A7" transform="translate(7,71)"/>
<path d="M0 0 C0.8125 1.6875 0.8125 1.6875 1 4 C-1.4375 6.75 -1.4375 6.75 -4 9 C-3.67 7.02 -3.34 5.04 -3 3 C-2.34 3 -1.68 3 -1 3 C-0.67 2.01 -0.34 1.02 0 0 Z " fill="#236143" transform="translate(84,10)"/>
<path d="M0 0 C0.33 0.66 0.66 1.32 1 2 C0.06421005 4.35981813 -0.93347808 6.69631264 -2 9 C-2.33 9 -2.66 9 -3 9 C-3.36923077 3.46153846 -3.36923077 3.46153846 -1.5 1.125 C-1.005 0.75375 -0.51 0.3825 0 0 Z " fill="#6D8573" transform="translate(121,23)"/>
</svg>
